# xmcd CD database file
#
# Track frame offsets:
#	150
#	15150
#	35387
#
# Disc length: 800 seconds
#
# Revision: 0
# Processed by: cddbd v1.5.1PL0 Copyright (c) Steve Scherf et al.
# Submitted via: CDex 1.50beta8
#
DISCID=12031e03
DTITLE=織田ジュンノスケ - Always
DYEAR=2003
DGENRE=JPop
TTITLE0=Always
TTITLE1=人工衛星
TTITLE2=engaged
EXTD=YEAR: 2003
EXTT0=
EXTT1=
EXTT2=
PLAYORDER=
